<svg width="642" height="720" viewBox="0 0 642 720" fill="none" xmlns="http://www.w3.org/2000/svg">
<rect width="642" height="720" fill="#6C63FF"/>
<g clip-path="url(#clip0_49_1013)">
<path d="M553.578 433.58C544.834 451.605 529.695 465.395 512.374 475.889C505.27 480.157 497.883 483.936 490.264 487.199C485.279 489.355 480.227 491.323 475.106 493.102C449.705 501.963 422.828 506.294 395.905 506.308C391.505 506.313 387.105 506.2 382.706 505.97C381.443 505.905 380.181 505.831 378.919 505.747C372.268 505.307 365.639 504.6 359.031 503.628C358.901 503.609 358.767 503.591 358.637 503.568C344.816 501.529 331.19 498.338 317.902 494.029C315.326 493.195 312.766 492.318 310.221 491.4C309.534 491.159 308.847 490.904 308.164 490.653C305.296 489.592 302.45 488.477 299.625 487.31C297.249 486.332 294.886 485.316 292.538 484.264C290.227 483.22 287.931 482.143 285.651 481.032C281.919 479.205 278.228 477.289 274.577 475.286C271.76 473.728 268.98 472.111 266.237 470.436C259.434 466.285 252.852 461.784 246.516 456.951C244.279 455.245 242.073 453.495 239.898 451.702C238.39 450.459 236.895 449.189 235.378 447.955C232.175 445.354 228.88 442.882 225.204 441.032C224.095 440.474 222.958 439.972 221.798 439.53C217.461 437.926 212.891 437.038 208.269 436.9C200.384 436.59 192.243 438.055 184.618 440.225C180.993 441.25 177.41 442.428 173.827 443.633C172.356 444.13 170.886 444.627 169.418 445.127C166.383 446.161 163.348 447.172 160.284 448.094C159.263 448.4 158.242 448.702 157.216 448.985C153.121 450.163 148.948 451.049 144.727 451.637C135.302 452.834 125.729 452.001 116.653 449.193L115.878 448.952C114.579 448.544 113.293 448.099 112.012 447.612L111.237 447.315C110.003 446.838 108.791 446.326 107.603 445.78L106.828 445.428C105.686 444.895 104.568 444.338 103.468 443.749C103.375 443.703 103.287 443.657 103.194 443.606C102.767 443.383 102.345 443.142 101.927 442.915C95.1884 439.147 89.0606 434.38 83.7523 428.776C83.5991 428.623 83.4552 428.466 83.2882 428.313C82.5501 427.515 81.8261 426.704 81.1254 425.874C80.8655 425.567 80.6055 425.261 80.3504 424.946C79.5196 423.931 78.7167 422.893 77.9416 421.835C77.8256 421.682 77.7141 421.524 77.6028 421.371C74.4334 416.988 71.8045 412.24 69.7732 407.228C69.7082 407.075 69.6479 406.917 69.5921 406.764C68.9748 405.174 68.4102 403.555 67.8982 401.909C67.6892 401.223 67.4898 400.518 67.3133 399.832C67.253 399.628 67.1973 399.419 67.1463 399.215C64.6077 389.143 64.3337 378.668 64.3337 368.253V364.613C64.4081 347.767 64.668 330.633 67.1556 314.018C67.1655 313.903 67.1825 313.788 67.2066 313.675C68.042 308.082 69.1745 302.537 70.5993 297.065C72.0954 291.324 74.0048 285.698 76.3125 280.232C82.035 266.785 90.3566 254.547 99.597 243.205C122.849 214.683 153.374 190.704 189.101 181.759C227.599 172.1 270.386 181.356 301.439 206.058C310.597 213.338 318.853 221.916 329.003 227.694C329.347 227.894 329.695 228.088 330.047 228.278C331.389 229.006 332.759 229.668 334.159 230.263C336.014 231.055 337.924 231.713 339.873 232.234C346.041 233.889 352.487 234.038 358.637 231.983C359.138 231.812 359.639 231.631 360.136 231.432C361.189 231.014 362.196 230.625 363.166 230.263C369.785 227.801 374.881 226.604 382.924 227.036C402.024 228.111 420.855 232.048 438.784 238.716C439.508 238.981 440.232 239.254 440.952 239.528C487.692 257.404 527.88 292.901 548.756 338.516C549.313 339.721 549.849 340.936 550.366 342.16C562.818 371.198 567.311 405.266 553.578 433.58Z" fill="#F2F2F2"/>
<path d="M91.5213 415.704V415.89L91.4517 415.973L91.5213 415.704Z" fill="#CACACA"/>
<path d="M173.827 443.634C172.356 444.13 170.886 444.627 169.418 445.127V443.634H173.827Z" fill="white"/>
<path d="M339.873 205.251H329.002V232.403H339.873V205.251Z" fill="#E4E4E4"/>
<path d="M358.637 230.263V503.568C344.816 501.529 331.19 498.338 317.901 494.029C315.326 493.195 312.765 492.318 310.22 491.4C309.534 491.159 308.847 490.904 308.164 490.653C305.296 489.592 302.45 488.477 299.625 487.31C297.248 486.332 294.886 485.316 292.538 484.264C290.226 483.22 287.931 482.143 285.65 481.032C281.919 479.205 278.228 477.289 274.577 475.286C271.759 473.728 268.979 472.111 266.237 470.436V230.263H358.637Z" fill="#E4E4E4"/>
<path d="M395.905 230.263V506.308C391.505 506.313 387.105 506.2 382.706 505.97C381.443 505.905 380.181 505.831 378.919 505.747C372.268 505.307 365.639 504.6 359.031 503.628C358.901 503.609 358.767 503.591 358.637 503.568V230.263H395.905Z" fill="#CACACA"/>
<path d="M296.907 257.415H282.931V271.379H296.907V257.415Z" fill="white"/>
<path d="M319.424 257.415H305.448V271.379H319.424V257.415Z" fill="white"/>
<path d="M341.942 257.415H327.965V271.379H341.942V257.415Z" fill="white"/>
<path d="M297.295 289.221H283.319V303.186H297.295V289.221Z" fill="white"/>
<path d="M319.813 289.221H305.836V303.186H319.813V289.221Z" fill="white"/>
<path d="M342.33 289.221H328.354V303.186H342.33V289.221Z" fill="white"/>
<path d="M297.684 321.028H283.708V334.992H297.684V321.028Z" fill="white"/>
<path d="M320.201 321.028H306.225V334.992H320.201V321.028Z" fill="white"/>
<path d="M342.718 321.028H328.742V334.992H342.718V321.028Z" fill="white"/>
<path d="M298.072 352.835H284.096V366.799H298.072V352.835Z" fill="white"/>
<path d="M320.589 352.835H306.613V366.799H320.589V352.835Z" fill="white"/>
<path d="M343.106 352.835H329.13V366.799H343.106V352.835Z" fill="white"/>
<path d="M298.46 384.642H284.484V398.606H298.46V384.642Z" fill="white"/>
<path d="M320.977 384.642H307.001V398.606H320.977V384.642Z" fill="white"/>
<path d="M343.495 384.642H329.518V398.606H343.495V384.642Z" fill="white"/>
<path d="M298.848 416.449H284.872V430.413H298.848V416.449Z" fill="white"/>
<path d="M321.366 416.449H307.389V430.413H321.366V416.449Z" fill="white"/>
<path d="M343.883 416.449H329.906V430.413H343.883V416.449Z" fill="white"/>
<path d="M299.236 448.256H285.26V462.22H299.236V448.256Z" fill="white"/>
<path d="M321.754 448.256H307.778V462.22H321.754V448.256Z" fill="white"/>
<path d="M344.271 448.256H330.295V462.22H344.271V448.256Z" fill="white"/>
<path d="M299.625 480.062V487.31C297.248 486.332 294.886 485.316 292.538 484.264C290.226 483.22 287.931 482.143 285.65 481.032V480.062H299.625Z" fill="white"/>
<path d="M322.143 480.062V494.029H317.901C315.326 493.195 312.765 492.318 310.22 491.4C309.534 491.159 308.847 490.904 308.164 490.653V480.062L322.143 480.062Z" fill="white"/>
<path d="M344.659 480.063H330.683V494.027H344.659V480.063Z" fill="white"/>
<path d="M466.563 343.526H455.693V359.619H466.563V343.526Z" fill="#E4E4E4"/>
<path d="M475.106 358.237V493.102C449.705 501.963 422.828 506.294 395.905 506.308C391.505 506.313 387.105 506.2 382.706 505.97V358.237H475.106Z" fill="#E4E4E4"/>
<path d="M512.374 358.237V475.889C505.27 480.157 497.883 483.936 490.263 487.199C485.279 489.355 480.226 491.323 475.106 493.102V358.237H512.374Z" fill="#CACACA"/>
<path d="M414.929 384.642H400.952V398.606H414.929V384.642Z" fill="white"/>
<path d="M437.446 384.642H423.469V398.606H437.446V384.642Z" fill="white"/>
<path d="M459.963 384.642H445.987V398.606H459.963V384.642Z" fill="white"/>
<path d="M415.317 416.449H401.341V430.413H415.317V416.449Z" fill="white"/>
<path d="M437.834 416.449H423.858V430.413H437.834V416.449Z" fill="white"/>
<path d="M460.351 416.449H446.375V430.413H460.351V416.449Z" fill="white"/>
<path d="M415.705 448.256H401.729V462.22H415.705V448.256Z" fill="white"/>
<path d="M438.222 448.256H424.246V462.22H438.222V448.256Z" fill="white"/>
<path d="M460.739 448.256H446.763V462.22H460.739V448.256Z" fill="white"/>
<path d="M416.093 480.063H402.117V494.027H416.093V480.063Z" fill="white"/>
<path d="M438.61 480.063H424.634V494.027H438.61V480.063Z" fill="white"/>
<path d="M461.128 480.063H447.152V494.027H461.128V480.063Z" fill="white"/>
<path d="M393.643 510.562C393.643 510.562 398.615 528.229 419.437 527.426C440.26 526.623 449.261 510.241 449.261 510.241L393.643 510.562Z" fill="#3F3D56"/>
<path d="M106.709 441.661L100.76 452.547L101.725 472.98L244.281 515.301L306.357 522.929L294.221 448.962L251.753 441.449L188.047 443.268L134.035 433.31L106.709 441.661Z" fill="#2F2E41"/>
<path d="M126.553 513.292H122.873C119.315 513.305 115.829 512.3 112.825 510.396C109.821 508.491 107.425 505.767 105.922 502.546C100.248 490.172 101.929 473.061 101.954 472.817C103.239 458.027 111.352 448.377 122.143 448.815C134.056 449.295 144.214 490.463 144.64 492.215C145.348 495.17 145.162 498.268 144.105 501.118C142.79 504.706 140.399 507.801 137.257 509.98C134.116 512.159 130.377 513.316 126.553 513.292Z" fill="#3F3D56"/>
<path d="M276.619 541.559C275.989 541.545 275.361 541.484 274.74 541.378C269.979 540.629 265.478 538.709 261.642 535.792C257.807 532.874 254.757 529.051 252.766 524.664C251.274 521.423 249.838 518.103 248.499 514.798C243.123 501.526 247.63 478.326 254.954 469.345C261.418 461.419 267.923 461.482 277.772 461.575C278.783 461.584 279.83 461.594 280.918 461.596C291.853 461.614 303.413 501.804 307.212 515.011C307.514 516.062 307.764 516.931 307.958 517.583C308.553 519.59 308.482 521.991 307.747 524.717C305.429 533.319 297.79 539.699 288.739 540.593C282.237 541.234 278.16 541.559 276.619 541.559Z" fill="#3F3D56"/>
<path d="M101.725 472.98C101.725 472.98 97.5456 454.35 103.815 441.662L110.133 426.404L134.01 448.568L139.462 483.249L232.895 497.392C232.895 497.392 227.108 440.537 263.437 438.289C299.766 436.04 317.004 497.392 317.004 497.392L335.131 510.562L461.478 501.247C461.478 501.247 463.709 507.35 460.504 510.562C457.299 513.774 303.946 523.732 303.946 523.732C303.946 523.732 296.23 447.604 265.688 454.671C235.146 461.737 244.28 515.301 244.28 515.301L135.161 496.107C135.161 496.107 131.624 444.392 113.62 444.392C95.6166 444.392 101.725 472.98 101.725 472.98Z" fill="#3F3D56"/>
<path d="M123.256 408.211L143.841 375.973L231.61 370.834L329.023 372.119L374.353 414.198L234.181 422.228L121.336 416.125L123.256 408.211Z" fill="#3F3D56"/>
<path d="M123.257 408.211C123.257 408.211 105.744 408.576 103.815 441.661C103.815 441.661 122.462 407.934 138.536 483.098L234.503 498.677C234.503 498.677 230.966 436.04 267.295 440.858C303.624 445.677 312.305 503.174 312.305 503.174C312.305 503.174 319.377 517.308 358.278 515.059C397.179 512.811 455.37 509.277 461.478 501.247C461.478 501.247 475.624 453.386 431.579 422.549L374.353 414.198L244.791 416.767L123.257 408.211Z" fill="#028BF2"/>
<path d="M167.149 430.74H156.219C155.922 430.741 155.629 430.684 155.355 430.572C155.081 430.459 154.832 430.294 154.622 430.085C154.412 429.876 154.245 429.628 154.132 429.354C154.018 429.081 153.959 428.788 153.959 428.492C153.959 428.196 154.018 427.903 154.132 427.629C154.245 427.356 154.412 427.108 154.622 426.899C154.832 426.69 155.081 426.524 155.355 426.412C155.629 426.299 155.922 426.242 156.219 426.243H167.149C167.745 426.245 168.315 426.483 168.735 426.905C169.155 427.326 169.391 427.897 169.391 428.492C169.391 429.087 169.155 429.657 168.735 430.079C168.315 430.5 167.745 430.738 167.149 430.74Z" fill="#CACACA"/>
<path d="M333.523 500.604C337.429 500.604 340.596 497.441 340.596 493.538C340.596 489.635 337.429 486.471 333.523 486.471C329.617 486.471 326.45 489.635 326.45 493.538C326.45 497.441 329.617 500.604 333.523 500.604Z" fill="white"/>
<path d="M330.019 458.863C325.177 458.863 319.395 456.797 314.221 452.815C305.09 445.787 301.254 435.409 305.669 429.682C310.085 423.955 321.106 425.014 330.237 432.041C334.65 435.438 337.972 439.707 339.592 444.061C341.222 448.441 340.936 452.388 338.789 455.173C336.875 457.655 333.721 458.863 330.019 458.863Z" fill="white"/>
<path d="M455.706 449.89C452.144 449.89 445.745 446.286 439.409 440.437C435.611 436.93 432.465 433.173 430.55 429.855C428.604 426.484 428.161 423.949 429.302 422.716C430.443 421.482 433.007 421.724 436.524 423.395C439.985 425.041 443.983 427.878 447.781 431.384C455.795 438.782 460.235 446.567 457.888 449.105C457.599 449.381 457.256 449.594 456.881 449.729C456.505 449.864 456.105 449.919 455.706 449.89Z" fill="white"/>
<path d="M156.923 408.205C156.846 408.205 156.769 408.201 156.692 408.194L133.445 406.035C133.021 405.995 132.614 405.848 132.263 405.607C131.911 405.367 131.627 405.04 131.438 404.659C131.248 404.278 131.159 403.855 131.179 403.43C131.199 403.004 131.327 402.591 131.552 402.23L144.661 381.113C144.875 380.768 145.171 380.48 145.522 380.274C145.873 380.069 146.269 379.952 146.676 379.934L164.014 379.17C164.413 379.152 164.81 379.23 165.172 379.397C165.535 379.564 165.852 379.816 166.097 380.13C166.342 380.444 166.509 380.813 166.582 381.205C166.656 381.597 166.635 382 166.52 382.382L159.319 406.423C159.164 406.937 158.847 407.388 158.415 407.709C157.984 408.03 157.461 408.204 156.923 408.205Z" fill="white"/>
<path d="M218.183 413.152C217.953 413.152 217.722 413.141 217.49 413.119L177.3 409.166C176.285 409.066 175.303 408.746 174.424 408.228C173.544 407.71 172.789 407.006 172.21 406.166C171.631 405.327 171.242 404.371 171.071 403.366C170.899 402.36 170.95 401.33 171.218 400.346L177 379.15C177.389 377.703 178.233 376.421 179.408 375.491C180.583 374.561 182.026 374.034 183.525 373.987L215.959 372.855C217.719 372.803 219.435 373.41 220.77 374.557C222.105 375.704 222.962 377.308 223.174 379.054L225.85 402.122C225.94 402.892 225.901 403.671 225.735 404.428L225.032 407.64C224.689 409.201 223.824 410.598 222.578 411.601C221.333 412.603 219.782 413.151 218.183 413.152Z" fill="white"/>
<path d="M249.549 414.268C248.372 414.264 247.232 413.864 246.311 413.133C245.39 412.402 244.743 411.381 244.474 410.237L237.384 379.619C237.208 378.856 237.206 378.063 237.378 377.299C237.551 376.536 237.894 375.821 238.382 375.208C238.869 374.595 239.489 374.1 240.195 373.76C240.901 373.419 241.674 373.243 242.458 373.243H326.533C327.23 373.244 327.92 373.385 328.562 373.656C329.204 373.928 329.785 374.324 330.271 374.823L357.733 403.112C358.438 403.839 358.916 404.755 359.108 405.75C359.3 406.744 359.197 407.772 358.813 408.709C358.428 409.646 357.779 410.45 356.944 411.023C356.108 411.597 355.124 411.914 354.111 411.937L249.664 414.267C249.626 414.268 249.587 414.268 249.549 414.268Z" fill="white"/>
<path d="M143.123 377.097L143.841 375.973C143.841 375.973 148.02 364.409 205.568 362.482C263.116 360.555 316.805 361.518 329.022 372.119L229.68 371.797L145.77 377.579L143.123 377.097Z" fill="#028BF2"/>
<path d="M115.871 459.489C109.834 459.489 104.94 469.556 104.94 481.974C104.94 494.392 109.834 504.459 115.871 504.459C121.908 504.459 126.802 494.392 126.802 481.974C126.802 469.556 121.908 459.489 115.871 459.489ZM116.353 464.307C117.685 464.307 118.764 466.896 118.764 470.089C118.764 473.282 117.685 475.871 116.353 475.871C115.022 475.871 113.942 473.282 113.942 470.089C113.942 466.896 115.022 464.307 116.353 464.307ZM117.8 481.974C117.8 483.038 117.08 483.901 116.193 483.901C115.305 483.901 114.585 483.038 114.585 481.974C114.585 480.91 115.305 480.047 116.193 480.047C117.08 480.047 117.8 480.91 117.8 481.974V481.974ZM109.401 483.211C107.334 483.37 105.604 482.802 105.538 481.942C105.471 481.081 107.093 480.254 109.16 480.095C111.227 479.935 112.957 480.503 113.023 481.364C113.09 482.224 111.468 483.051 109.401 483.211L109.401 483.211ZM116.353 499.641C115.022 499.641 113.942 497.052 113.942 493.859C113.942 490.666 115.022 488.077 116.353 488.077C117.685 488.077 118.764 490.666 118.764 493.859C118.764 497.052 117.685 499.641 116.353 499.641H116.353ZM122.582 483.211C120.515 483.37 118.785 482.802 118.719 481.942C118.652 481.081 120.274 480.254 122.341 480.095C124.408 479.935 126.138 480.503 126.205 481.364C126.271 482.224 124.649 483.051 122.582 483.211L122.582 483.211Z" fill="#E4E4E4"/>
<path d="M268.581 474.586C258.993 474.586 251.22 487.457 251.22 503.335C251.22 519.212 258.993 532.083 268.581 532.083C278.169 532.083 285.942 519.212 285.942 503.335C285.942 487.457 278.169 474.586 268.581 474.586ZM258.21 505.492C255.41 505.708 253.067 504.938 252.976 503.773C252.886 502.607 255.083 501.487 257.883 501.271C260.683 501.055 263.026 501.825 263.116 502.99C263.207 504.156 261.01 505.276 258.21 505.492ZM268.591 527.426C266.788 527.426 265.325 523.919 265.325 519.594C265.325 515.269 266.788 511.762 268.591 511.762C270.395 511.762 271.858 515.269 271.858 519.594C271.858 523.919 270.395 527.426 268.591 527.426ZM266.009 503.495C266.009 501.792 267.161 500.412 268.581 500.412C270.002 500.412 271.153 501.792 271.153 503.495C271.153 505.198 270.002 506.579 268.581 506.579C267.161 506.579 266.009 505.198 266.009 503.495ZM268.591 495.228C266.788 495.228 265.325 491.722 265.325 487.397C265.325 483.071 266.788 479.565 268.591 479.565C270.395 479.565 271.858 483.071 271.858 487.397C271.858 491.722 270.395 495.228 268.591 495.228ZM279.601 504.85C276.801 505.066 274.458 504.296 274.368 503.13C274.277 501.965 276.474 500.845 279.274 500.628C282.074 500.412 284.417 501.182 284.507 502.348C284.598 503.513 282.401 504.634 279.601 504.85Z" fill="#E4E4E4"/>
<path d="M207.819 417.089L211.677 426.083C211.677 426.083 218.106 428.652 222.286 419.98L213.817 411.518L207.819 417.089Z" fill="#CACACA"/>
<path d="M202.514 419.177C195.6 419.177 189.976 415.43 189.976 410.825C189.976 406.22 195.6 402.473 202.514 402.473C209.428 402.473 215.052 406.22 215.052 410.825C215.052 415.43 209.428 419.177 202.514 419.177Z" fill="#CACACA"/>
<path d="M444.28 448.568L372.399 450.667C372.399 450.667 356.669 455.076 355.063 467.672C355.063 467.672 357.311 477.959 363.089 477.959C368.868 477.959 457.474 473.34 457.474 473.34C457.474 473.34 463.252 464.523 458.437 458.225C453.621 451.927 444.28 448.568 444.28 448.568Z" fill="#3F3D56"/>
<path d="M450.502 452.581L366.208 455.365L366.24 456.328L450.534 453.544L450.502 452.581Z" fill="#E4E4E4"/>
<path d="M453.569 455.634L361.89 459.784L361.934 460.747L453.612 456.597L453.569 455.634Z" fill="#E4E4E4"/>
<path d="M456.777 459.781L358.461 465.056L358.513 466.018L456.829 460.744L456.777 459.781Z" fill="#E4E4E4"/>
<path d="M115.36 438.433C114.967 437.929 114.69 437.345 114.548 436.723C114.405 436.1 114.401 435.454 114.536 434.829C114.671 434.205 114.941 433.618 115.327 433.109C115.714 432.6 116.207 432.182 116.772 431.884L115.859 421.942L121.771 419.914L122.863 433.973C123.301 434.955 123.363 436.064 123.037 437.089C122.711 438.115 122.02 438.985 121.095 439.535C120.17 440.084 119.075 440.276 118.018 440.073C116.961 439.87 116.015 439.287 115.359 438.434L115.36 438.433Z" fill="#FFB8B8"/>
<path d="M121.706 381.369C121.706 381.369 125.763 372.862 129.368 375.852C132.974 378.843 124.426 403.998 124.426 403.998L123.126 428.418L116.275 427.733L114.338 403.944L121.706 381.369Z" fill="#E6E6E6"/>
<path d="M67.2883 507.223L72.3741 511.336L90.6739 493.692L83.1679 487.623L67.2883 507.223Z" fill="#FFB8B8"/>
<path d="M67.3347 504.515L77.3507 512.614C79.0434 513.984 80.1224 515.968 80.3504 518.133C80.5783 520.297 79.9366 522.463 78.5663 524.154L78.3984 524.361L62 511.099L67.3347 504.515Z" fill="#2F2E41"/>
<path d="M137.971 518.641H144.514L147.626 493.423H137.97L137.971 518.641Z" fill="#FFB8B8"/>
<path d="M136.301 516.507H149.188C151.366 516.507 153.455 517.371 154.995 518.91C156.535 520.448 157.4 522.535 157.4 524.711V524.978H136.302L136.301 516.507Z" fill="#2F2E41"/>
<path d="M149.452 400.422C149.452 400.422 161.728 415.352 159.059 430.285C156.391 445.218 154.256 456.416 154.256 456.416L149.988 490.01C149.988 490.01 151.589 499.161 149.454 501.518C149.454 501.518 152.657 507.075 146.786 509.208C140.915 511.341 137.745 508.472 137.745 508.472C137.745 508.472 133.44 502.277 136.109 500.679L137.233 434.743L94.4783 490.544C94.4783 490.544 93.6927 497.33 88.2142 497.403L81.6688 502.276L74.1965 498.008L77.9326 493.209C77.9326 493.209 75.7977 487.876 80.6013 486.81L108.355 450.549L115.294 431.884C115.294 431.884 119.03 417.486 129.171 411.62V405.379L149.452 400.422Z" fill="#2F2E41"/>
<path d="M128.37 374.559C129.986 372.65 132.248 371.403 134.726 371.053C137.203 370.704 139.722 371.277 141.804 372.664L142.247 372.959C146.985 378.32 150.169 384.87 151.457 391.904L153.455 402.822L128.37 408.251L122.489 387.987C121.743 385.415 121.922 382.663 122.997 380.21C124.071 377.756 125.973 375.757 128.37 374.559L128.37 374.559Z" fill="#E6E6E6"/>
<path d="M169.584 440.755C168.888 440.527 168.251 440.151 167.717 439.651C167.183 439.151 166.766 438.54 166.493 437.862C166.221 437.183 166.101 436.453 166.142 435.724C166.183 434.994 166.383 434.282 166.729 433.637L159.492 424.789L163.802 419.084L173.845 431.723C174.89 432.376 175.658 433.388 176.005 434.569C176.352 435.75 176.254 437.017 175.729 438.13C175.204 439.243 174.288 440.125 173.155 440.609C172.023 441.092 170.752 441.144 169.584 440.755H169.584Z" fill="#FFB8B8"/>
<path d="M139.045 382.558C139.045 382.558 137.443 371.892 142.781 372.426C148.118 372.959 156.124 402.289 156.124 402.289L170.535 426.285L163.596 430.018L146.517 408.688L139.045 382.558Z" fill="#E6E6E6"/>
<path d="M148.819 366.965H123.403C122.88 366.965 122.379 366.757 122.009 366.388C121.639 366.018 121.431 365.518 121.431 364.995V354.05C121.431 350.16 122.978 346.429 125.731 343.679C128.484 340.928 132.217 339.383 136.111 339.383C140.004 339.383 143.738 340.928 146.491 343.679C149.244 346.429 150.791 350.16 150.791 354.05V364.995C150.79 365.518 150.582 366.018 150.212 366.388C149.843 366.757 149.341 366.965 148.819 366.965Z" fill="#2F2E41"/>
<path d="M139.127 366.711C145.072 366.711 149.89 361.896 149.89 355.957C149.89 350.018 145.072 345.204 139.127 345.204C133.183 345.204 128.365 350.018 128.365 355.957C128.365 361.896 133.183 366.711 139.127 366.711Z" fill="#FFB8B8"/>
<path d="M154.263 355.144H140.718L140.579 352.915L139.885 355.144H137.8L137.524 350.726L136.148 355.144H132.113V354.925C132.113 348.528 136.653 343.323 142.235 343.323H144.145C149.725 343.323 154.267 348.528 154.267 354.925L154.263 355.144Z" fill="#2F2E41"/>
<path d="M141.279 369.009C141.114 369.009 140.949 368.996 140.785 368.971L124.663 366.49V349.712C124.663 347.998 125.345 346.355 126.557 345.143C127.77 343.931 129.416 343.25 131.131 343.25H142.41L141.972 343.697C135.859 349.914 140.465 359.998 143.754 365.457C143.995 365.849 144.104 366.308 144.065 366.767C144.025 367.226 143.84 367.66 143.535 368.005C143.255 368.327 142.908 368.583 142.519 368.757C142.129 368.93 141.707 369.017 141.28 369.01L141.279 369.009Z" fill="#2F2E41"/>
</g>
<defs>
<clipPath id="clip0_49_1013">
<rect width="500" height="363.559" fill="white" transform="translate(62 178)"/>
</clipPath>
</defs>
</svg>
