<svg width="31" height="31" viewBox="0 0 31 31" fill="none" xmlns="http://www.w3.org/2000/svg">
<path d="M15.5 0.5C7.22891 0.5 0.5 7.22891 0.5 15.5C0.5 23.7711 7.22891 30.5 15.5 30.5C23.7711 30.5 30.5 23.7711 30.5 15.5C30.5 7.22891 23.7711 0.5 15.5 0.5ZM15.5 1.57641C23.1773 1.57641 29.4236 7.82239 29.4236 15.5C29.4236 16.032 29.3909 16.5568 29.3321 17.0736C28.4051 14.0198 25.5376 11.3454 19.668 10.0713C12.4602 8.94038 14.9924 6.75483 16.3285 5.96496C16.0224 6.0052 15.9175 6.06611 15.7809 6.09321C8.17761 8.15534 10.7023 10.5722 10.7023 10.5722C16.5107 16.1439 11.757 20.9204 4.86333 24.4713C2.81461 22.0465 1.57614 18.916 1.57614 15.5C1.57641 7.82239 7.82239 1.57641 15.5 1.57641ZM13.19 8.72736C13.2281 8.95112 13.3574 9.18212 13.5817 9.41447C13.6133 9.4472 13.6265 9.48422 13.6222 9.52152C13.6176 9.56874 13.5835 9.61542 13.5331 9.64842C13.4927 9.67727 13.444 9.69215 13.3944 9.69081C13.3403 9.69194 13.288 9.67158 13.249 9.6342C12.9785 9.34927 12.8259 9.07561 12.784 8.7998C12.7658 8.71313 12.8455 8.62648 12.9573 8.60367C13.0692 8.58596 13.1771 8.64043 13.19 8.72736ZM13.0204 7.92836C13.023 7.90746 13.0314 7.88768 13.0445 7.87122C13.1752 7.67536 13.3491 7.49104 13.5613 7.31155C13.6356 7.25091 13.7655 7.24152 13.8443 7.2933C13.9232 7.34616 13.9243 7.44677 13.8438 7.51304C13.6573 7.66704 13.5084 7.8307 13.3995 7.99544C13.359 8.05366 13.2806 8.08988 13.201 8.08988C13.1742 8.09028 13.1476 8.08555 13.1226 8.07593C13.0512 8.05366 13.0126 7.99544 13.0204 7.92836ZM14.2741 27.2072C14.3788 27.1092 14.5569 27.1025 14.671 27.1908C14.7855 27.2815 14.7946 27.4339 14.6897 27.5324C14.3137 27.8892 13.9323 28.2403 13.5457 28.5857C13.4894 28.6343 13.4173 28.6606 13.3429 28.6597C13.2729 28.6597 13.2028 28.6377 13.1484 28.5927C13.0362 28.5004 13.033 28.3466 13.1403 28.2506C13.5237 27.9088 13.9017 27.5609 14.2741 27.2072ZM13.9549 10.1499C13.9561 10.1031 13.9755 10.0587 14.0088 10.0259C14.0858 9.95482 14.2224 9.9355 14.3053 9.99265C14.6157 10.1936 14.9473 10.3701 15.1678 10.485C15.2298 10.5196 15.2609 10.5722 15.2561 10.6355C15.2522 10.6674 15.2396 10.6977 15.2196 10.723C15.1963 10.749 15.1677 10.7698 15.1358 10.784C15.1038 10.7981 15.0692 10.8053 15.0342 10.8051C14.9926 10.8051 14.9578 10.7949 14.9234 10.7806C14.5607 10.592 14.2755 10.4281 14.026 10.2599C14.0074 10.2472 13.9915 10.2309 13.9793 10.2121C13.9671 10.1932 13.9588 10.172 13.9549 10.1499ZM18.3351 22.7167C18.4188 22.6037 18.594 22.5713 18.7228 22.6424C18.8543 22.7143 18.8926 22.8637 18.8089 22.9759C18.506 23.3841 18.1921 23.784 17.8675 24.1751C17.8125 24.2417 17.7258 24.2771 17.6383 24.2771C17.5815 24.2771 17.5248 24.2621 17.4752 24.232C17.3486 24.1537 17.3196 24.0029 17.4092 23.8945C17.7285 23.5104 18.0372 23.1176 18.3351 22.7167ZM17.7033 11.9673C17.7406 11.9276 17.7897 11.9009 17.8433 11.891C17.8969 11.8811 17.9523 11.8886 18.0013 11.9123C18.3633 12.1039 18.6726 12.2807 18.9474 12.4586C19.0008 12.4945 19.0305 12.5466 19.0287 12.6018C19.029 12.622 19.0251 12.642 19.0173 12.6605C19.0095 12.6791 18.9979 12.6959 18.9833 12.7097C18.9618 12.7343 18.9352 12.7541 18.9054 12.7676C18.8756 12.7811 18.8433 12.7881 18.8105 12.788C18.7655 12.7872 18.7214 12.7746 18.6828 12.7513C18.382 12.5604 18.0738 12.3813 17.7591 12.2144C17.7368 12.2032 17.7174 12.1869 17.7026 12.1669C17.6877 12.1469 17.6777 12.1236 17.6735 12.0991C17.6679 12.0763 17.6677 12.0525 17.6728 12.0297C17.678 12.0068 17.6884 11.9855 17.7033 11.9673ZM19.9816 20.2443C20.0544 20.1252 20.2237 20.0801 20.3616 20.1421C20.4987 20.2046 20.5515 20.3511 20.4791 20.4694C20.23 20.873 19.9743 21.2725 19.712 21.6676L19.6699 21.7323C19.6186 21.8112 19.5229 21.8549 19.4252 21.8549C19.3774 21.8554 19.3301 21.8448 19.287 21.824C19.1515 21.7589 19.1038 21.611 19.1802 21.4948L19.2226 21.4302C19.462 21.0637 19.7246 20.6645 19.9816 20.2443ZM19.5328 13.103C19.6138 13.0354 19.7549 13.0298 19.8403 13.0974C20.1254 13.3342 20.3882 13.5967 20.6253 13.8816L20.6315 13.8859C20.6934 13.972 20.669 14.0839 20.5695 14.1427C20.5312 14.1642 20.4881 14.1755 20.4442 14.1754C20.3696 14.1754 20.302 14.1478 20.2644 14.096C20.0448 13.8313 19.8005 13.588 19.5349 13.3694C19.4499 13.2959 19.4456 13.1763 19.5328 13.103ZM21.2193 17.6491C21.2561 17.5189 21.4068 17.4401 21.5592 17.4723C21.7098 17.5036 21.8023 17.6343 21.765 17.7644C21.643 18.1948 21.4616 18.6509 21.2113 19.158C21.1659 19.2492 21.0618 19.3053 20.9526 19.3053C20.9161 19.3053 20.8788 19.2994 20.8429 19.2865C20.7001 19.2336 20.6331 19.0917 20.694 18.9688C20.9325 18.4856 21.1039 18.0539 21.2193 17.6491ZM21.0696 14.6989C21.208 14.639 21.3781 14.6852 21.4484 14.8038C21.7146 15.2496 21.8785 15.7489 21.9282 16.2657C21.9408 16.3983 21.8259 16.5152 21.6711 16.5262L21.6472 16.527C21.5034 16.527 21.38 16.4313 21.3677 16.3049C21.3259 15.8519 21.1821 15.4142 20.9473 15.0246C20.8764 14.9049 20.9314 14.7592 21.0696 14.6989ZM17.109 11.6623C17.0703 11.7165 16.9966 11.7465 16.918 11.7465C16.9 11.7465 16.8764 11.7465 16.8522 11.7409V11.7465L16.8171 11.7267C16.8053 11.7213 16.7996 11.7165 16.794 11.7165C16.6883 11.6623 16.5778 11.6073 16.4669 11.5517C16.2625 11.4525 16.0605 11.3535 15.8635 11.2553C15.8419 11.2446 15.8229 11.2293 15.8077 11.2106C15.7926 11.1918 15.7817 11.17 15.7758 11.1466C15.7608 11.1023 15.7772 11.0535 15.8034 11.0141C15.8684 10.9363 16.0014 10.9067 16.0996 10.9507C16.2435 11.0243 16.3878 11.0975 16.5386 11.1707C16.7071 11.2502 16.8756 11.3336 17.0446 11.4181C17.109 11.4476 17.1484 11.5072 17.1447 11.5668C17.1415 11.6012 17.1292 11.6342 17.109 11.6623ZM16.4173 25.0329C16.5134 24.9269 16.6907 24.9105 16.8125 24.9918C16.9346 25.0739 16.9552 25.2261 16.86 25.3312C16.5135 25.7111 16.1592 26.0838 15.7973 26.449C15.742 26.5067 15.6631 26.5351 15.5837 26.5351C15.5196 26.5351 15.4547 26.5163 15.4018 26.4774C15.2832 26.3902 15.269 26.2384 15.3693 26.1367C15.7256 25.7754 16.075 25.4074 16.4173 25.0329Z" fill="white"/>
</svg>
